<svg width="8" height="12" xmlns="http://www.w3.org/2000/svg"><path d="M3.333 10c0 .733-.6 1.333-1.333 1.333S.667 10.733.667 10 1.267 8.667 2 8.667s1.333.6 1.333 1.333zM2 4.667c-.733 0-1.333.6-1.333 1.333S1.267 7.333 2 7.333 3.333 6.733 3.333 6 2.733 4.667 2 4.667zm0-4C1.267.667.667 1.267.667 2S1.267 3.333 2 3.333 3.333 2.733 3.333 2 2.733.667 2 .667zm4 2.666c.733 0 1.333-.6 1.333-1.333S6.733.667 6 .667 4.667 1.267 4.667 2 5.267 3.333 6 3.333zm0 1.334c-.733 0-1.333.6-1.333 1.333S5.267 7.333 6 7.333 7.333 6.733 7.333 6 6.733 4.667 6 4.667zm0 4c-.733 0-1.333.6-1.333 1.333s.6 1.333 1.333 1.333 1.333-.6 1.333-1.333S6.733 8.667 6 8.667z" fill="#889" fill-rule="nonzero"/></svg>